<svg width="40" height="40" viewBox="0 0 40 40" fill="none" xmlns="http://www.w3.org/2000/svg">
<g clip-path="url(#clip0_12_130)">
<path d="M39.9997 18.7453C39.7586 14.8453 38.3816 11.1012 36.0383 7.97435C33.6951 4.84754 30.488 2.47479 26.8125 1.14863C23.1371 -0.177532 19.1539 -0.399138 15.354 0.511132C11.5541 1.4214 8.10359 3.42376 5.42794 6.27134C2.75229 9.11892 0.968418 12.6872 0.296254 16.5364C-0.375911 20.3856 0.0930113 24.3473 1.64521 27.9332C3.19741 31.519 5.76503 34.5723 9.03153 36.7166C12.298 38.8608 16.1206 40.0023 20.028 40.0003H31.6664C33.8758 39.9981 35.9941 39.1194 37.5565 37.5571C39.1188 35.9948 39.9975 33.8764 39.9997 31.667V18.7453ZM36.6664 31.667C36.6664 32.9931 36.1396 34.2648 35.2019 35.2025C34.2642 36.1402 32.9924 36.667 31.6664 36.667H20.028C17.6762 36.6659 15.3511 36.1692 13.2042 35.2092C11.0573 34.2491 9.13681 32.8474 7.56802 31.0953C5.99164 29.3441 4.8079 27.2761 4.09617 25.03C3.38445 22.7838 3.16118 20.4115 3.44135 18.072C3.88374 14.3819 5.54167 10.944 8.15375 8.30018C10.7658 5.65641 14.1835 3.95716 17.868 3.47031C18.5867 3.38022 19.3103 3.33458 20.0347 3.33364C23.9188 3.32304 27.6827 4.68014 30.6663 7.16697C32.4089 8.61521 33.8392 10.4022 34.8706 12.4197C35.9019 14.4372 36.5129 16.643 36.6664 18.9036V31.667Z" fill="#374957"/>
<path d="M13.333 14.9997H19.9997C20.4417 14.9997 20.8657 14.8241 21.1782 14.5116C21.4908 14.199 21.6664 13.7751 21.6664 13.3331C21.6664 12.891 21.4908 12.4671 21.1782 12.1546C20.8657 11.842 20.4417 11.6664 19.9997 11.6664H13.333C12.891 11.6664 12.4671 11.842 12.1545 12.1546C11.842 12.4671 11.6664 12.891 11.6664 13.3331C11.6664 13.7751 11.842 14.199 12.1545 14.5116C12.4671 14.8241 12.891 14.9997 13.333 14.9997Z" fill="#374957"/>
<path d="M26.6664 18.3336H13.333C12.891 18.3336 12.4671 18.5092 12.1545 18.8218C11.842 19.1343 11.6664 19.5582 11.6664 20.0003C11.6664 20.4423 11.842 20.8662 12.1545 21.1788C12.4671 21.4914 12.891 21.667 13.333 21.667H26.6664C27.1084 21.667 27.5323 21.4914 27.8449 21.1788C28.1575 20.8662 28.333 20.4423 28.333 20.0003C28.333 19.5582 28.1575 19.1343 27.8449 18.8218C27.5323 18.5092 27.1084 18.3336 26.6664 18.3336Z" fill="#374957"/>
<path d="M26.6664 25H13.333C12.891 25 12.4671 25.1756 12.1545 25.4882C11.842 25.8007 11.6664 26.2246 11.6664 26.6667C11.6664 27.1087 11.842 27.5326 12.1545 27.8452C12.4671 28.1578 12.891 28.3334 13.333 28.3334H26.6664C27.1084 28.3334 27.5323 28.1578 27.8449 27.8452C28.1575 27.5326 28.333 27.1087 28.333 26.6667C28.333 26.2246 28.1575 25.8007 27.8449 25.4882C27.5323 25.1756 27.1084 25 26.6664 25Z" fill="#374957"/>
</g>
<defs>
<clipPath id="clip0_12_130">
<rect width="40" height="40" fill="white"/>
</clipPath>
</defs>
</svg>
