<svg width="40" height="40" viewBox="0 0 40 40" fill="none" xmlns="http://www.w3.org/2000/svg">
<g clip-path="url(#clip0_12_209)">
<path d="M32.7919 4.59697C30.6802 2.83973 28.2274 1.53891 25.5882 0.77647C22.9489 0.0140324 20.1803 -0.193493 17.4569 0.166972C12.4186 0.821502 7.81835 3.36892 4.59008 7.29199C1.3618 11.215 -0.252453 16.2197 0.0750816 21.2897C0.402616 26.3597 2.64739 31.115 6.3536 34.5901C10.0598 38.0651 14.9496 39.9995 20.0302 40.0003H31.6669C33.8762 39.9977 35.9943 39.1188 37.5565 37.5566C39.1187 35.9944 39.9976 33.8763 40.0002 31.667V18.8486V18.7436C39.8238 16.0194 39.0936 13.3597 37.8542 10.9273C36.6148 8.49493 34.8922 6.3409 32.7919 4.59697V4.59697ZM13.3335 11.667H20.0002C20.4422 11.667 20.8662 11.8426 21.1787 12.1551C21.4913 12.4677 21.6669 12.8916 21.6669 13.3336C21.6669 13.7757 21.4913 14.1996 21.1787 14.5121C20.8662 14.8247 20.4422 15.0003 20.0002 15.0003H13.3335C12.8915 15.0003 12.4676 14.8247 12.155 14.5121C11.8425 14.1996 11.6669 13.7757 11.6669 13.3336C11.6669 12.8916 11.8425 12.4677 12.155 12.1551C12.4676 11.8426 12.8915 11.667 13.3335 11.667V11.667ZM26.6669 28.3336H13.3335C12.8915 28.3336 12.4676 28.158 12.155 27.8455C11.8425 27.5329 11.6669 27.109 11.6669 26.667C11.6669 26.2249 11.8425 25.801 12.155 25.4885C12.4676 25.1759 12.8915 25.0003 13.3335 25.0003H26.6669C27.1089 25.0003 27.5328 25.1759 27.8454 25.4885C28.1579 25.801 28.3335 26.2249 28.3335 26.667C28.3335 27.109 28.1579 27.5329 27.8454 27.8455C27.5328 28.158 27.1089 28.3336 26.6669 28.3336ZM26.6669 21.667H13.3335C12.8915 21.667 12.4676 21.4914 12.155 21.1788C11.8425 20.8663 11.6669 20.4423 11.6669 20.0003C11.6669 19.5583 11.8425 19.1344 12.155 18.8218C12.4676 18.5092 12.8915 18.3336 13.3335 18.3336H26.6669C27.1089 18.3336 27.5328 18.5092 27.8454 18.8218C28.1579 19.1344 28.3335 19.5583 28.3335 20.0003C28.3335 20.4423 28.1579 20.8663 27.8454 21.1788C27.5328 21.4914 27.1089 21.667 26.6669 21.667Z" fill="#164863"/>
</g>
<defs>
<clipPath id="clip0_12_209">
<rect width="40" height="40" fill="white"/>
</clipPath>
</defs>
</svg>
