<svg width="40" height="40" viewBox="0 0 40 40" fill="none" xmlns="http://www.w3.org/2000/svg">
<path d="M36.8351 8.38905C35.3424 5.7353 32.6886 4.24256 29.7031 4.24256H9.96568C6.98021 4.24256 4.32638 5.7353 2.83365 8.38905C1.00919 11.7062 0.0140381 15.3552 0.0140381 19.17C0.0140381 28.2923 3.66294 35.7561 8.30709 35.7561C10.795 35.7561 12.7854 33.434 14.2781 28.624C14.444 27.9606 15.1074 27.463 15.9367 27.463H24.0639C24.7273 27.463 25.3908 27.9606 25.7225 28.624C27.2152 33.434 29.2055 35.7561 31.6935 35.7561C36.3376 35.7561 39.9865 28.2923 39.9865 19.17C39.6548 15.3551 38.6597 11.7062 36.8351 8.38905ZM14.9415 17.5114H13.2829V19.17C13.2829 20.1651 12.6195 20.8286 11.6244 20.8286C10.6292 20.8286 9.96576 20.1651 9.96576 19.17V17.5114H8.30716C7.31201 17.5114 6.64857 16.848 6.64857 15.8528C6.64857 14.8576 7.31201 14.1942 8.30716 14.1942H9.96576V12.5356C9.96576 11.5405 10.6292 10.877 11.6244 10.877C12.6195 10.877 13.2829 11.5405 13.2829 12.5356V14.1942H14.9415C15.9367 14.1942 16.6001 14.8576 16.6001 15.8528C16.6001 16.848 15.9367 17.5114 14.9415 17.5114ZM25.8883 20.8286C24.5615 20.8286 23.4004 19.6676 23.4004 18.3407C23.4004 17.0138 24.5615 15.8528 25.8883 15.8528C27.2152 15.8528 28.3762 17.0138 28.3762 18.3407C28.3762 19.6676 27.0494 20.8286 25.8883 20.8286ZM30.6983 15.8528C29.5373 15.8528 28.2104 14.6918 28.2104 13.3649C28.2104 12.038 29.5373 10.877 30.6983 10.877C31.8594 10.877 33.1862 12.038 33.1862 13.3649C33.1862 14.6918 32.0252 15.8528 30.6983 15.8528Z" fill="#164863"/>
</svg>
