<svg width="40" height="40" viewBox="0 0 40 40" fill="none" xmlns="http://www.w3.org/2000/svg">
<path d="M37.0124 8.38199C35.5187 5.89238 32.863 4.23262 29.8755 4.23262H9.95852C6.97094 4.23262 4.31539 5.89238 2.82156 8.38199C0.99586 11.7015 0 15.353 0 19.1704C0 28.299 3.65148 35.7679 8.29875 35.7679C10.7884 35.7679 12.7801 33.4443 14.2738 28.631C14.4398 27.9671 15.1037 27.4692 15.9336 27.4692H24.0664C24.7303 27.4692 25.3942 27.9671 25.7262 28.631C27.2199 33.4443 29.2116 35.7679 31.7013 35.7679C36.3485 35.7679 40 28.299 40 19.1704C39.8341 15.353 38.8382 11.7015 37.0124 8.38199ZM31.5352 32.4484C31.0373 32.4484 29.8755 31.1206 28.7137 27.6351C28.0498 25.4775 26.058 24.1497 23.9004 24.1497H15.9336C13.7759 24.1497 11.7842 25.6434 11.1203 27.6351C9.95852 31.1206 8.79664 32.4484 8.29875 32.4484C6.63898 32.4484 3.31953 27.3032 3.31953 19.1704C3.31953 16.0169 4.14937 12.8634 5.6432 10.0418C6.63906 8.54809 8.29883 7.55223 9.95859 7.55223H29.8756C31.5354 7.55223 33.1952 8.54809 34.191 10.0418C35.6848 12.8634 36.5147 16.0169 36.5147 19.1704C36.5145 27.3032 33.195 32.4484 31.5352 32.4484Z" fill="#374957"/>
<path d="M15.0001 15H13.3334V13.3334C13.3334 12.3334 12.6668 11.6667 11.6668 11.6667C10.6668 11.6667 10.0002 12.3334 10.0002 13.3334V15H8.33351C7.33351 15 6.66687 15.6667 6.66687 16.6667C6.66687 17.6667 7.33351 18.3333 8.33351 18.3333H10.0001V20C10.0001 21 10.6667 21.6666 11.6667 21.6666C12.6667 21.6666 13.3334 21 13.3334 20V18.3334H15.0001C16.0001 18.3334 16.6667 17.6667 16.6667 16.6667C16.6667 15.6667 16.0001 15 15.0001 15Z" fill="#374957"/>
<path d="M30.8334 16.6666C32.2141 16.6666 33.3334 15.5473 33.3334 14.1666C33.3334 12.7859 32.2141 11.6666 30.8334 11.6666C29.4527 11.6666 28.3334 12.7859 28.3334 14.1666C28.3334 15.5473 29.4527 16.6666 30.8334 16.6666Z" fill="#374957"/>
<path d="M25.8334 21.6666C27.2141 21.6666 28.3334 20.5473 28.3334 19.1666C28.3334 17.7859 27.2141 16.6666 25.8334 16.6666C24.4527 16.6666 23.3334 17.7859 23.3334 19.1666C23.3334 20.5473 24.4527 21.6666 25.8334 21.6666Z" fill="#374957"/>
</svg>
