<svg width="40" height="40" viewBox="0 0 40 40" fill="none" xmlns="http://www.w3.org/2000/svg">
<g clip-path="url(#clip0_12_122)">
<path d="M38.5354 15.1149L25.8937 2.47153C24.3291 0.911514 22.2098 0.0354881 20.0004 0.0354881C17.791 0.0354881 15.6716 0.911514 14.1071 2.47153L1.46539 15.1149C0.999429 15.5778 0.630003 16.1287 0.378524 16.7355C0.127045 17.3423 -0.00148446 17.993 0.000386343 18.6499V35.0115C0.000386343 36.3376 0.527171 37.6094 1.46485 38.5471C2.40253 39.4847 3.6743 40.0115 5.00039 40.0115H35.0004C36.3265 40.0115 37.5982 39.4847 38.5359 38.5471C39.4736 37.6094 40.0004 36.3376 40.0004 35.0115V18.6499C40.0023 17.993 39.8737 17.3423 39.6223 16.7355C39.3708 16.1287 39.0013 15.5778 38.5354 15.1149V15.1149ZM25.0004 36.6782H15.0004V30.1215C15.0004 28.7954 15.5272 27.5237 16.4649 26.586C17.4025 25.6483 18.6743 25.1215 20.0004 25.1215C21.3265 25.1215 22.5982 25.6483 23.5359 26.586C24.4736 27.5237 25.0004 28.7954 25.0004 30.1215V36.6782ZM36.6671 35.0115C36.6671 35.4536 36.4915 35.8775 36.1789 36.19C35.8663 36.5026 35.4424 36.6782 35.0004 36.6782H28.3337V30.1215C28.3337 27.9114 27.4557 25.7918 25.8929 24.229C24.3301 22.6662 22.2105 21.7882 20.0004 21.7882C17.7903 21.7882 15.6706 22.6662 14.1078 24.229C12.545 25.7918 11.6671 27.9114 11.6671 30.1215V36.6782H5.00039C4.55836 36.6782 4.13444 36.5026 3.82188 36.19C3.50931 35.8775 3.33372 35.4536 3.33372 35.0115V18.6499C3.33527 18.2082 3.5107 17.7848 3.82205 17.4715L16.4637 4.8332C17.4032 3.89808 18.6748 3.3731 20.0004 3.3731C21.3259 3.3731 22.5976 3.89808 23.5371 4.8332L36.1787 17.4765C36.4889 17.7886 36.6642 18.2099 36.6671 18.6499V35.0115Z" fill="#374957"/>
</g>
<defs>
<clipPath id="clip0_12_122">
<rect width="40" height="40" fill="white"/>
</clipPath>
</defs>
</svg>
