<svg width="40" height="40" viewBox="0 0 40 40" fill="none" xmlns="http://www.w3.org/2000/svg">
<g clip-path="url(#clip0_12_156)">
<path d="M20 24.9863C17.2386 24.9863 15 27.2249 15 29.9863V39.9863H25V29.9863C25 27.2249 22.7614 24.9863 20 24.9863Z" fill="#164863"/>
<path d="M28.3334 29.987V39.987H35C37.7614 39.987 40 37.7484 40 34.987V19.7854C40.0004 18.9195 39.6639 18.0875 39.0616 17.4654L24.8984 2.15365C22.3993 -0.550255 18.1815 -0.716271 15.4776 1.78279C15.3491 1.90154 15.2254 2.02521 15.1067 2.15365L0.96836 17.4604C0.347891 18.0851 -0.000234257 18.9299 1.18268e-07 19.8104V34.987C1.18268e-07 37.7484 2.23859 39.987 5 39.987H11.6666V29.987C11.6978 25.4423 15.3671 21.7311 19.7973 21.6242C24.3758 21.5137 28.2984 25.2882 28.3334 29.987Z" fill="#164863"/>
<path d="M20 24.9863C17.2386 24.9863 15 27.2249 15 29.9863V39.9863H25V29.9863C25 27.2249 22.7614 24.9863 20 24.9863Z" fill="#164863"/>
</g>
<defs>
<clipPath id="clip0_12_156">
<rect width="40" height="40" fill="white"/>
</clipPath>
</defs>
</svg>
