<svg width="40" height="40" viewBox="0 0 40 40" fill="none" xmlns="http://www.w3.org/2000/svg">
<g clip-path="url(#clip0_12_176)">
<path d="M20 19.9999C21.9778 19.9999 23.9112 19.4134 25.5557 18.3146C27.2002 17.2158 28.4819 15.654 29.2388 13.8267C29.9957 11.9995 30.1937 9.9888 29.8079 8.04899C29.422 6.10918 28.4696 4.32735 27.0711 2.92883C25.6725 1.5303 23.8907 0.577893 21.9509 0.192041C20.0111 -0.193811 18.0004 0.00422223 16.1732 0.761099C14.3459 1.51797 12.7841 2.7997 11.6853 4.44419C10.5865 6.08868 10 8.02208 10 9.99989C10.0026 12.6512 11.0571 15.1932 12.9319 17.068C14.8066 18.9428 17.3486 19.9972 20 19.9999ZM20 3.33323C21.3185 3.33323 22.6075 3.72422 23.7038 4.45676C24.8001 5.18931 25.6546 6.2305 26.1592 7.44867C26.6638 8.66685 26.7958 10.0073 26.5386 11.3005C26.2813 12.5937 25.6464 13.7816 24.714 14.7139C23.7817 15.6463 22.5938 16.2812 21.3006 16.5385C20.0074 16.7957 18.667 16.6637 17.4488 16.1591C16.2306 15.6545 15.1894 14.8 14.4569 13.7037C13.7243 12.6074 13.3333 11.3184 13.3333 9.99989C13.3333 8.23178 14.0357 6.53609 15.286 5.28585C16.5362 4.03561 18.2319 3.33323 20 3.33323Z" fill="#374957"/>
<path d="M20 23.3344C16.0231 23.3388 12.2104 24.9205 9.39827 27.7326C6.58618 30.5447 5.00441 34.3575 5 38.3344C5 38.7764 5.17559 39.2003 5.48816 39.5129C5.80072 39.8254 6.22464 40.001 6.66667 40.001C7.10869 40.001 7.53262 39.8254 7.84518 39.5129C8.15774 39.2003 8.33333 38.7764 8.33333 38.3344C8.33333 35.2402 9.5625 32.2727 11.7504 30.0848C13.9383 27.8968 16.9058 26.6677 20 26.6677C23.0942 26.6677 26.0617 27.8968 28.2496 30.0848C30.4375 32.2727 31.6667 35.2402 31.6667 38.3344C31.6667 38.7764 31.8423 39.2003 32.1548 39.5129C32.4674 39.8254 32.8913 40.001 33.3333 40.001C33.7754 40.001 34.1993 39.8254 34.5118 39.5129C34.8244 39.2003 35 38.7764 35 38.3344C34.9956 34.3575 33.4138 30.5447 30.6017 27.7326C27.7896 24.9205 23.9769 23.3388 20 23.3344Z" fill="#374957"/>
</g>
<defs>
<clipPath id="clip0_12_176">
<rect width="40" height="40" fill="white"/>
</clipPath>
</defs>
</svg>
